<svg t="1729269899035" class="icon" viewBox="0 0 1024 1024" version="1.1" xmlns="http://www.w3.org/2000/svg" p-id="14523" width="200" height="200"><path d="M857.6 435.2c-17.066667 0-29.866667 12.8-29.866667 25.6v290.133333c0 51.2-42.666667 93.866667-93.866666 93.866667h-426.666667c-59.733333 0-110.933333-51.2-110.933333-110.933333v-426.666667c0-25.6 8.533333-46.933333 25.6-68.266667 21.333333-12.8 42.666667-25.6 68.266666-25.6h268.8c17.066667 0 29.866667-12.8 29.866667-25.6s-12.8-25.6-29.866667-25.6H290.133333c-81.066667 0-149.333333 68.266667-149.333333 149.333334v426.666666c0 89.6 72.533333 166.4 166.4 166.4h426.666667c81.066667 0 149.333333-68.266667 149.333333-149.333333v-290.133333c0-17.066667-12.8-29.866667-25.6-29.866667z" fill="#1A1311" p-id="14524"></path><path d="M908.8 119.466667c-4.266667 0-4.266667 0 0 0-59.733333-46.933333-140.8-42.666667-183.466667 12.8l-384 384c-4.266667 4.266667-4.266667 8.533333-8.533333 12.8l-42.666667 170.666666c-4.266667 8.533333 0 21.333333 8.533334 25.6 4.266667 4.266667 12.8 8.533333 21.333333 8.533334h8.533333l174.933334-46.933334c4.266667 0 8.533333-4.266667 12.8-8.533333L896 298.666667c46.933333-42.666667 55.466667-123.733333 12.8-179.2zM853.333333 260.266667L477.866667 640l-123.733334 34.133333 29.866667-123.733333 384-384c25.6-29.866667 72.533333-34.133333 102.4-12.8 21.333333 34.133333 12.8 81.066667-17.066667 106.666667z" fill="#1A1311" p-id="14525"></path></svg>