<svg t="1729585379338" 
class="icon" 
viewBox="0 0 1024 1024" 
version="1.1" 
xmlns="http://www.w3.org/2000/svg" 
p-id="14071" 
width="20" height="20">
<path d="M223.25 512c0-159.452 129.246-288.72 288.698-288.75v86.625c0 15.947 12.928 28.875 28.875 28.875 15.96 0 40.057-28.875 40.057-28.875l162.015-163.59h-231c-201.937 0.059-365.61 163.778-365.61 365.715 0 96.074 37.328 183.225 97.966 248.482l54.442-54.442A287.385 287.385 0 0 1 223.303 512h-0.052z m556.447-248.534l-54.442 54.494a287.278 287.278 0 0 1 75.39 194.093V512c0 159.452-129.246 288.72-288.698 288.75v-86.625c0-15.927-12.896-28.846-28.822-28.875-15.96 0-40.11 28.875-40.11 28.875L281 877.715h231c201.958 0 365.686-163.704 365.714-365.663 0-96.074-37.38-183.225-97.965-248.534l-0.052-0.052z" fill="#707070" p-id="14072"></path></svg>